<svg version="1.1" viewBox="0 0 640 400" xmlns="http://www.w3.org/2000/svg" xmlns:xlink="http://www.w3.org/1999/xlink" xmlns:svgjs="http://svgjs.dev/svgjs" matcher="0.5077527576521155"><g viewBox="0 0 640 400" matcher="0.5077527576521155"><g matcher="0.5077527576521155"><g matcher="0.5077527576521155"><g matcher="0.5077527576521155"><svg viewBox="0 0 640 400" data-background-color="#ffffff" preserveAspectRatio="xMidYMid meet" height="400" width="640" xmlns="http://www.w3.org/2000/svg" xmlns:xlink="http://www.w3.org/1999/xlink"><rect width="640" height="400" x="0" y="0" opacity="1" fill="#ffffff" data-fill-palette-color="background" id="background"></rect><g id="tight-bounds" transform="matrix(1,0,0,1,122.24000000000001,123.78520490656885)"><svg viewBox="0 0 395.52 152.4295901868623" height="152.4295901868623" width="395.52"><g><svg viewBox="0 0 395.52 152.4295901868623" height="152.4295901868623" width="395.52"><g><svg viewBox="0 0 395.52 152.4295901868623" height="152.4295901868623" width="395.52"><g id="textblocktransform"><svg viewBox="0 0 395.52 152.4295901868623" height="152.4295901868623" width="395.52" id="textblock"><g><svg viewBox="0 0 395.52 152.4295901868623" height="152.4295901868623" width="395.52"><g transform="matrix(1,0,0,1,0,0)"><svg width="395.52" viewBox="2.340000629425049 -37.54999923706055 212.97000122070312 79.08000183105469" height="152.4295901868623" data-palette-color="#636365"><svg></svg><svg></svg><g class="wordmark-text-0" data-fill-palette-color="primary" id="text-0"><path xmlns="http://www.w3.org/2000/svg" d="M37.33-10.3v0c0 1.253-0.16 2.38-0.48 3.38-0.313 1-0.73 1.883-1.25 2.65-0.527 0.76-1.14 1.41-1.84 1.95-0.7 0.54-1.423 0.98-2.17 1.32-0.747 0.34-1.507 0.593-2.28 0.76-0.773 0.16-1.503 0.24-2.19 0.24v0h-24.48v-6.35h24.48c1.227 0 2.177-0.357 2.85-1.07 0.673-0.72 1.01-1.68 1.01-2.88v0c0-0.587-0.09-1.123-0.27-1.61-0.18-0.493-0.437-0.917-0.77-1.27-0.333-0.36-0.74-0.637-1.22-0.83-0.48-0.2-1.013-0.3-1.6-0.3v0h-14.6c-1.02 0-2.127-0.183-3.32-0.55-1.187-0.367-2.287-0.957-3.3-1.77-1.02-0.813-1.867-1.877-2.54-3.19-0.68-1.32-1.02-2.933-1.02-4.84v0c0-1.9 0.34-3.507 1.02-4.82 0.673-1.313 1.52-2.38 2.54-3.2 1.013-0.82 2.113-1.413 3.3-1.78 1.193-0.367 2.3-0.55 3.32-0.55v0h21.61v6.35h-21.61c-1.2 0-2.14 0.367-2.82 1.1-0.673 0.733-1.01 1.7-1.01 2.9v0c0 1.22 0.337 2.183 1.01 2.89 0.68 0.713 1.62 1.07 2.82 1.07v0h14.6 0.05c0.687 0.013 1.413 0.107 2.18 0.28 0.76 0.167 1.52 0.43 2.28 0.79 0.753 0.36 1.473 0.813 2.16 1.36 0.68 0.54 1.287 1.193 1.82 1.96 0.527 0.767 0.947 1.647 1.26 2.64 0.307 0.993 0.46 2.117 0.46 3.37zM71.24-17.5v17.5h-6.35v-17.5c0-0.833-0.21-1.467-0.63-1.9-0.427-0.427-1.063-0.64-1.91-0.64v0h-11.45v-6.35h11.45c0.607 0 1.243 0.07 1.91 0.21 0.667 0.133 1.33 0.347 1.99 0.64 0.66 0.293 1.29 0.673 1.89 1.14 0.6 0.46 1.13 1.02 1.59 1.68 0.453 0.66 0.82 1.423 1.1 2.29 0.273 0.86 0.41 1.837 0.41 2.93zM48.34-37.55v37.55h-6.35v-37.55zM83.5-37.55v5.74h-6.35v-5.74zM83.5-26.39v26.39h-6.35v-26.39zM114.33-26.39h6.74c-0.713 2.227-1.553 4.423-2.52 6.59-0.96 2.167-2.06 4.23-3.3 6.19-1.247 1.96-2.64 3.773-4.18 5.44-1.54 1.673-3.24 3.113-5.1 4.32-1.867 1.213-3.893 2.167-6.08 2.86-2.187 0.693-4.56 1.04-7.12 1.04v0c-0.44 0-0.853-0.083-1.24-0.25-0.393-0.16-0.737-0.383-1.03-0.67-0.293-0.28-0.52-0.613-0.68-1-0.16-0.38-0.24-0.79-0.24-1.23v0-23.29h6.34v19.85c1.547 0 3.033-0.333 4.46-1 1.42-0.667 2.767-1.55 4.04-2.65 1.267-1.1 2.443-2.35 3.53-3.75 1.08-1.4 2.043-2.837 2.89-4.31 0.847-1.473 1.567-2.917 2.16-4.33 0.593-1.42 1.037-2.69 1.33-3.81zM151.73-17.65v0c0 0.88-0.153 1.827-0.46 2.84-0.307 1.02-0.807 1.963-1.5 2.83-0.693 0.873-1.597 1.603-2.71 2.19-1.113 0.587-2.47 0.88-4.07 0.88v0h-11.45v-6.03h11.45c0.867 0 1.537-0.263 2.01-0.79 0.467-0.533 0.7-1.19 0.7-1.97v0c0-0.833-0.263-1.483-0.79-1.95-0.527-0.473-1.167-0.71-1.92-0.71v0h-11.45c-0.86 0-1.527 0.263-2 0.79-0.473 0.533-0.71 1.19-0.71 1.97v0 8.86c0 0.847 0.267 1.507 0.8 1.98 0.527 0.473 1.18 0.71 1.96 0.71v0h11.4v6.05h-11.45c-0.88 0-1.827-0.153-2.84-0.46-1.02-0.313-1.963-0.817-2.83-1.51-0.873-0.687-1.603-1.59-2.19-2.71-0.587-1.113-0.88-2.467-0.88-4.06v0-8.91c0-0.88 0.157-1.83 0.47-2.85 0.307-1.013 0.807-1.957 1.5-2.83 0.693-0.867 1.597-1.593 2.71-2.18 1.113-0.587 2.467-0.88 4.06-0.88v0h11.45c0.88 0 1.83 0.153 2.85 0.46 1.013 0.313 1.957 0.813 2.83 1.5 0.873 0.693 1.6 1.597 2.18 2.71 0.587 1.12 0.88 2.477 0.88 4.07zM181.52-8.91v0c0 1.087-0.14 2.067-0.42 2.94-0.273 0.873-0.64 1.64-1.1 2.3-0.453 0.653-0.98 1.213-1.58 1.68-0.607 0.467-1.237 0.847-1.89 1.14-0.66 0.287-1.33 0.5-2.01 0.64-0.673 0.14-1.31 0.21-1.91 0.21v0h-17.19v-6.35h17.14c0.86 0 1.51-0.22 1.95-0.66 0.44-0.44 0.66-1.073 0.66-1.9v0c-0.08-1.693-0.933-2.54-2.56-2.54v0h-9.84c-1.4 0-2.59-0.243-3.57-0.73-0.973-0.493-1.767-1.103-2.38-1.83-0.607-0.733-1.043-1.523-1.31-2.37-0.273-0.847-0.41-1.637-0.41-2.37v0c0-1.413 0.253-2.607 0.76-3.58 0.507-0.967 1.14-1.75 1.9-2.35 0.767-0.607 1.597-1.043 2.49-1.31 0.9-0.267 1.74-0.4 2.52-0.4v0h15.6v6.35h-15.55c-0.327 0-0.583 0.037-0.77 0.11-0.187 0.073-0.327 0.17-0.42 0.29-0.087 0.12-0.14 0.25-0.16 0.39-0.013 0.14-0.02 0.273-0.02 0.4v0c0.013 0.26 0.063 0.463 0.15 0.61 0.08 0.147 0.18 0.253 0.3 0.32 0.12 0.067 0.26 0.103 0.42 0.11 0.153 0.007 0.303 0.01 0.45 0.01v0h9.84c1.627 0 3.01 0.293 4.15 0.88 1.14 0.587 2.06 1.323 2.76 2.21 0.7 0.887 1.207 1.85 1.52 2.89 0.32 1.047 0.48 2.017 0.48 2.91zM215.31-17.5v17.5h-6.35v-17.5c0-0.833-0.21-1.467-0.63-1.9-0.427-0.427-1.063-0.64-1.91-0.64v0h-11.45v-6.35h11.45c0.6 0 1.237 0.07 1.91 0.21 0.667 0.133 1.327 0.347 1.98 0.64 0.66 0.293 1.293 0.673 1.9 1.14 0.6 0.46 1.127 1.02 1.58 1.68 0.46 0.66 0.827 1.423 1.1 2.29 0.28 0.86 0.42 1.837 0.42 2.93zM192.41-37.55v37.55h-6.35v-37.55z" fill="#636365" fill-rule="nonzero" stroke="none" stroke-width="1" stroke-linecap="butt" stroke-linejoin="miter" stroke-miterlimit="10" stroke-dasharray="" stroke-dashoffset="0" font-family="none" font-weight="none" font-size="none" text-anchor="none" style="mix-blend-mode: normal" data-fill-palette-color="primary" opacity="1"></path><path xmlns="http://www.w3.org/2000/svg" d="M44.43 8.74v32.3h-6.39v-20.85l-11.26 19.8c-0.273 0.507-0.66 0.89-1.16 1.15-0.493 0.26-1.027 0.39-1.6 0.39v0c-0.553 0-1.07-0.13-1.55-0.39-0.48-0.26-0.857-0.643-1.13-1.15v0l-11.31-19.8v20.85h-6.34v-32.3c0-0.733 0.213-1.383 0.64-1.95 0.433-0.573 1-0.957 1.7-1.15v0c0.34-0.08 0.683-0.11 1.03-0.09 0.34 0.027 0.667 0.1 0.98 0.22 0.32 0.127 0.61 0.3 0.87 0.52 0.26 0.22 0.48 0.483 0.66 0.79v0l14.45 25.12 14.46-25.12c0.373-0.62 0.89-1.06 1.55-1.32 0.66-0.26 1.347-0.3 2.06-0.12v0c0.687 0.193 1.247 0.577 1.68 1.15 0.44 0.567 0.66 1.217 0.66 1.95zM57.54 3.49v5.74h-6.34v-5.74zM57.54 14.65v26.39h-6.34v-26.39zM89.14 32.13v0c0 1.087-0.14 2.067-0.42 2.94-0.273 0.873-0.64 1.64-1.1 2.3-0.453 0.653-0.98 1.213-1.58 1.68-0.607 0.467-1.24 0.847-1.9 1.14-0.66 0.287-1.327 0.5-2 0.64-0.673 0.14-1.313 0.21-1.92 0.21v0h-17.18v-6.35h17.14c0.86 0 1.51-0.22 1.95-0.66 0.44-0.44 0.66-1.073 0.66-1.9v0c-0.08-1.693-0.937-2.54-2.57-2.54v0h-9.83c-1.4 0-2.59-0.243-3.57-0.73-0.973-0.493-1.767-1.103-2.38-1.83-0.607-0.733-1.047-1.523-1.32-2.37-0.267-0.847-0.4-1.637-0.4-2.37v0c0-1.413 0.253-2.607 0.76-3.58 0.5-0.967 1.133-1.75 1.9-2.35 0.767-0.607 1.597-1.043 2.49-1.31 0.893-0.267 1.733-0.4 2.52-0.4v0h15.6v6.35h-15.56c-0.32 0-0.573 0.037-0.76 0.11-0.193 0.073-0.333 0.17-0.42 0.29-0.087 0.12-0.14 0.25-0.16 0.39-0.013 0.14-0.02 0.273-0.02 0.4v0c0.013 0.26 0.06 0.463 0.14 0.61 0.087 0.147 0.19 0.253 0.31 0.32 0.12 0.067 0.257 0.103 0.41 0.11 0.16 0.007 0.313 0.01 0.46 0.01v0h9.83c1.633 0 3.02 0.293 4.16 0.88 1.133 0.587 2.05 1.323 2.75 2.21 0.7 0.887 1.21 1.85 1.53 2.89 0.32 1.047 0.48 2.017 0.48 2.91zM122.92 23.54v17.5h-6.34v-17.5c0-0.833-0.213-1.467-0.64-1.9-0.42-0.427-1.053-0.64-1.9-0.64v0h-11.45v-6.35h11.45c0.6 0 1.233 0.07 1.9 0.21 0.667 0.133 1.33 0.347 1.99 0.64 0.66 0.293 1.29 0.673 1.89 1.14 0.607 0.46 1.137 1.02 1.59 1.68 0.453 0.66 0.82 1.423 1.1 2.29 0.273 0.86 0.41 1.837 0.41 2.93zM100.02 3.49v37.55h-6.34v-37.55zM151.83 14.65v6.35h-14.28c-0.867 0-1.517 0.213-1.95 0.64-0.44 0.433-0.66 1.067-0.66 1.9v0 17.5h-6.35v-17.5c0-1.093 0.137-2.07 0.41-2.93 0.28-0.867 0.65-1.63 1.11-2.29 0.467-0.66 1-1.22 1.6-1.68 0.607-0.467 1.24-0.847 1.9-1.14 0.653-0.293 1.32-0.507 2-0.64 0.673-0.14 1.303-0.21 1.89-0.21v0zM181.2 23.39v8.91c0 0.88-0.153 1.827-0.46 2.84-0.313 1.02-0.813 1.967-1.5 2.84-0.693 0.867-1.597 1.593-2.71 2.18-1.12 0.587-2.477 0.88-4.07 0.88v0h-11.45c-0.88 0-1.827-0.153-2.84-0.46-1.02-0.313-1.967-0.817-2.84-1.51-0.867-0.687-1.593-1.59-2.18-2.71-0.587-1.113-0.88-2.467-0.88-4.06v0c0-0.88 0.153-1.833 0.46-2.86 0.313-1.02 0.817-1.967 1.51-2.84 0.687-0.873 1.59-1.603 2.71-2.19 1.113-0.58 2.467-0.87 4.06-0.87v0h11.45v6.05h-11.45c-0.86 0-1.527 0.263-2 0.79-0.473 0.533-0.71 1.19-0.71 1.97v0c0 0.827 0.273 1.473 0.82 1.94 0.547 0.467 1.193 0.7 1.94 0.7v0h11.4c0.86 0 1.527-0.263 2-0.79 0.473-0.52 0.71-1.17 0.71-1.95v0-8.86c0-0.833-0.257-1.493-0.77-1.98-0.513-0.487-1.16-0.73-1.94-0.73v0h-13.94v-6.03h13.94c0.88 0 1.83 0.153 2.85 0.46 1.013 0.313 1.957 0.813 2.83 1.5 0.867 0.693 1.593 1.597 2.18 2.71 0.587 1.12 0.88 2.477 0.88 4.07z" fill="#89939e" fill-rule="nonzero" stroke="none" stroke-width="1" stroke-linecap="butt" stroke-linejoin="miter" stroke-miterlimit="10" stroke-dasharray="" stroke-dashoffset="0" font-family="none" font-weight="none" font-size="none" text-anchor="none" style="mix-blend-mode: normal" data-fill-palette-color="secondary" opacity="1"></path></g></svg></g></svg></g></svg></g></svg></g></svg></g><defs></defs></svg><rect width="395.52" height="152.4295901868623" fill="none" stroke="none" visibility="hidden"></rect></g></svg></g></g></g></g><rect width="407.5200514033943" height="158.86444394582247" x="117.24002529373365" y="121.56777802708876" rx="2.5" ry="2.5" fill="transparent" class="logo-element-hover-target"></rect></svg>
